<?xml version="1.0" encoding="utf-8"?>
<!-- Generator: Adobe Illustrator 16.0.0, SVG Export Plug-In . SVG Version: 6.00 Build 0)  -->
<!DOCTYPE svg PUBLIC "-//W3C//DTD SVG 1.1//EN" "http://www.w3.org/Graphics/SVG/1.1/DTD/svg11.dtd">
<svg version="1.1" id="Layer_1" xmlns="http://www.w3.org/2000/svg" xmlns:xlink="http://www.w3.org/1999/xlink" x="0px" y="0px"
	 width="477px" height="382px" viewBox="19.5 61.5 477 382" enable-background="new 19.5 61.5 477 382" xml:space="preserve">
<path id="refresh-3-icon" d="M389.545,126.433l-41.783,41.785c-22.686-22.685-54.021-36.713-88.635-36.713
	c-69.228,0-125.347,56.145-125.347,125.374c0,0.018,0-0.018,0,0c0,0,10.564,0.121,19.345,0.121c0.125,10.594,1.167,15.834,4,25.25
	c-10.001,9.998-1.955,1.921-1.955,1.921l-50.475,50.455L27,256.879h47.687c0-0.009,0,0.007,0,0
	c0-101.864,82.577-184.468,184.44-184.468C310.059,72.411,356.169,93.055,389.545,126.433z M489.123,250.438l-77.694-77.749
	c0,0-49.46,49.279-52.491,52.311c2.469,8.688,3.896,13,4.625,25.438c8.166,0,18.78,0,18.78,0c0,0.018,0-0.02,0,0
	c0,69.229-56.118,125.375-125.347,125.375c-34.613,0-65.95-14.03-88.635-36.714l-41.784,41.785
	c33.379,33.377,79.489,54.021,130.419,54.021c101.861,0,184.441-82.604,184.441-184.467c0-0.008,0,0.009,0,0L489.123,250.438
	L489.123,250.438z M364.563,250.375 M364.063,250.438 M157.125,282.25"/>
<path id="globe-4-icon" d="M267.828,225.531c-0.033-0.057,0.153-0.642,0.314-0.586c0.105,0.033,0.068,0.085,0.196,0.096
	c0.126,0.011,0.202-0.139,0.335-0.115c0.206,0.037,0.349,0.229,0.568,0.234c0.166,0.004,0.263-0.16,0.42-0.173
	c0.115-0.011,0.22,0.063,0.335,0.038c0.121-0.029,0.214-0.108,0.318-0.168c0.202-0.119,0.177-0.015,0.408-0.038
	c0.073-0.01,0.136-0.05,0.206-0.063c0.015-0.003,0.03-0.003,0.047-0.002c0.104,0.011,0.146,0.075,0.122,0.198
	c-0.051,0.27-0.269,0.471-0.304,0.748c-0.022,0.18,0.21,0.28,0.149,0.473c-0.147,0.485-0.286,0.511-0.38,0.526
	c-0.133,0.023-0.226-0.02-0.281-0.047c-0.165-0.078-0.281-0.231-0.439-0.326c-0.082-0.051-0.182-0.065-0.268-0.103
	c-0.275-0.116-1.068-0.665-1.314-0.648c-0.088,0.004-0.161,0.071-0.248,0.063c-0.003,0-0.008,0-0.011-0.001
	C267.957,225.632,267.879,225.62,267.828,225.531z M251.266,201.888C251.266,201.888,251.266,201.888,251.266,201.888
	c-0.019,0.024-0.033,0.049-0.047,0.074c-0.025,0.049-0.009,0.11,0.037,0.141c0.047,0.031,0.107,0.022,0.145-0.021
	c0.044-0.051,0.1-0.117,0.172-0.204c0.068-0.082,0.092-0.11,0.192-0.154c0.079-0.034,0.16-0.065,0.241-0.092
	c0.031-0.01,0.066-0.004,0.092,0.015c0.025,0.02,0.041,0.052,0.04,0.084c-0.009,0.187,0.055,0.391-0.134,0.538
	c-0.107,0.084-0.192,0.151-0.256,0.206c-0.064,0.053-0.082,0.144-0.043,0.217c0.039,0.072,0.125,0.108,0.204,0.085
	c0,0,0,0,0.01,0.006c0.007,0.005,0.013,0.013,0.014,0.022c0.054,0.223,0.06,0.223,0.353,0.044c0.01-0.005,0.021-0.007,0.031-0.003
	c0.005,0.001,0.01,0.004,0.012,0.009c0.039,0.079,0.104,0.141,0.183,0.178c0.109,0.053,0.191,0.155,0.217,0.278
	c0.001,0.007,0.004,0.014,0.005,0.022c0.003,0.007,0.005,0.014,0.007,0.021c0.101,0.305,0.02,0.641-0.208,0.866
	c-0.227,0.227-0.563,0.306-0.867,0.205c0,0,0,0-0.001,0c-0.051-0.017-0.106,0.001-0.138,0.046s-0.027,0.103,0.006,0.144
	c0.029,0.038,0.066,0.072,0.065,0.124c-0.005,0.19-0.244,0.119-0.318,0.245c-0.001,0.002-0.002,0.002-0.003,0.003
	c-0.005,0.009-0.008,0.019-0.01,0.031c-0.002,0.023,0.008,0.048,0.025,0.064c0.02,0.018,0.044,0.023,0.068,0.019
	c0.109-0.025,0.198-0.117,0.314-0.127c0.218-0.015,0.053,0.532-0.02,0.613c-0.078,0.089-0.631,0.285-0.806,0.31
	c-0.112,0.018-0.187,0.028-0.224,0.067c-0.035,0.04-0.058,0.27,0.098,0.344c0.234,0.112,0.455-0.093,0.689-0.033l0,0
	c0.221,0.059,0.422,0.177,0.578,0.343c0.014,0.015,0.03,0.024,0.047,0.03c0.076,0.031,0.162,0.029,0.236-0.002
	c0.019-0.009,0.037-0.02,0.052-0.032c0.062-0.055,0.127-0.074,0.193-0.076c0.05-0.001,0.097,0.03,0.112,0.078
	c0.016,0.049,0,0.101-0.042,0.131c-0.171,0.123-0.341,0.247-0.58,0.22c-0.126-0.015-0.255-0.016-0.382-0.002
	c-0.391,0.041-0.76,0.215-1.042,0.498c-0.095,0.094-0.195,0.196-0.286,0.288c-0.048,0.05-0.052,0.127-0.009,0.182
	c0.043,0.054,0.121,0.068,0.18,0.032c0.041-0.024,0.086-0.052,0.135-0.083c0.168-0.104,0.475-0.229,0.642,0.093
	c0.002,0.001,0.005,0.002,0.007,0.002c0.025,0.008,0.052,0.002,0.072-0.013c0.227-0.169,0.34-0.485,0.672-0.514
	c0.234-0.017,0.409,0.212,0.65,0.162c0.27-0.057,0.493-0.264,0.787-0.247c0.107,0.005,0.404,0.085,0.434,0.102
	c0.082,0.05,0.082,0.05,0.521,0.058c0.185,0.003,0.318,0.153,0.493,0.181c0.213,0.032,0.408-0.093,0.617-0.076c0,0,0,0,0.002,0
	s0.002,0,0.002,0c0.006,0,0.633-0.12,0.62-0.379c0-0.005-0.003-0.009-0.007-0.012c-0.003-0.001-0.006-0.003-0.008-0.005
	c-0.221-0.13-0.367-0.358-0.396-0.612c-0.004-0.019,0.009-0.038,0.028-0.043c0.021-0.006,0.042-0.002,0.06,0.012
	c0.013,0.01,0.027,0.02,0.037,0.028c0.068,0.045,0.109,0.052,0.135,0.034c0.15-0.108,0.311-0.209,0.473-0.299
	c0.087-0.048,0.139-0.146,0.188-0.335c0.014-0.058,0.07-0.357-0.311-0.57c-0.002,0-0.006-0.003-0.008-0.004
	c-0.031-0.018-0.738-0.381-0.938-0.271c-0.135,0.07-0.135,0.07-0.379-0.057c-0.01-0.037,0.004-0.074,0.033-0.097
	c0.279-0.214,0.279-0.218,0.273-0.279c-0.01-0.134-0.081-0.229-0.161-0.318c-0.07-0.078-0.077-0.193-0.019-0.278
	c0.002-0.001,0.002-0.002,0.003-0.003c0.054-0.073-0.226-0.674-0.229-0.677c-0.018-0.021-0.028-0.031-0.066-0.029
	c-0.117,0.008-0.241,0.011-0.358,0.011c-0.015,0-0.034,0.002-0.062,0.007c-0.004,0.001-0.006-0.001-0.008-0.003
	c-0.007-0.012-0.008-0.025-0.004-0.039c0.037-0.147-0.107-0.242-0.121-0.377c-0.014-0.136,0.024-0.271,0.038-0.406
	c0.011-0.12-0.003-0.258-0.042-0.391c-0.141-0.486-0.119-0.999,0.054-1.462c0.073-0.194,0.173-0.379,0.292-0.546
	c0.279-0.387-0.971-0.337-1.207-0.321c-0.019,0.001-0.036-0.008-0.046-0.024c-0.01-0.016-0.009-0.035,0.001-0.051
	c0.061-0.092,0.068-0.211,0.154-0.29c0.113-0.109,0.27-0.144,0.4-0.225c0.287-0.18,0.047-0.291-0.059-0.318
	c-0.251-0.064-0.516-0.099-0.773-0.099c-0.099,0-0.197,0.014-0.298,0.052c-0.065,0.023-0.141,0.105-0.218,0.212
	c-0.156,0.219-0.342,0.414-0.553,0.581c-0.012,0.009-0.023,0.018-0.033,0.026c-0.059,0.044-0.137,0.052-0.201,0.025
	c-0.039-0.017-0.082-0.017-0.121,0c-0.008,0.003-0.016,0.007-0.023,0.011c-0.072,0.038-0.125,0.093-0.164,0.156
	c-0.049,0.079-0.038,0.179,0.024,0.246c0.063,0.067,0.163,0.083,0.243,0.041c0,0,0.001,0.003,0.002,0.004
	c0.011,0.026,0.01,0.055-0.001,0.08c-0.047,0.103-0.062,0.215-0.104,0.319c-0.005,0.012-0.015,0.02-0.027,0.022
	c-0.019,0.003-0.038-0.005-0.048-0.021c-0.053-0.082-0.078-0.083-0.115-0.075c-0.004,0.001-0.008,0.002-0.012,0.002
	c-0.148,0.031-0.252,0.379-0.246,0.48c0.002,0.035,0.012,0.059,0.028,0.077C251.418,201.343,251.435,201.659,251.266,201.888z
	 M355.051,254.999c0,53.048-43.003,96.052-96.051,96.052c-53.047,0-96.051-43.004-96.051-96.052c0-53.047,43.003-96.05,96.051-96.05
	C312.048,158.949,355.051,201.952,355.051,254.999z M287.421,213.663c-0.005-0.229,0.382-0.224,0.419-0.51
	c0.016-0.13-0.042-0.259-0.15-0.332c-0.138-0.094-0.199-0.065-0.368,0.01c-0.1,0.047-0.213,0.098-0.337,0.097
	c-0.101,0-0.185-0.073-0.202-0.171c-0.017-0.088,0.026-0.175,0.103-0.218c0.03-0.017,0.041-0.053,0.025-0.083l-0.001-0.001
	c-0.01-0.022-0.03-0.038-0.054-0.044c-0.266-0.064-0.489-0.103-0.674-0.125c-0.349-0.042-0.705-0.016-1.042,0.079
	c-0.277,0.078-0.293,0.121-0.356,0.305c-0.169,0.479-0.238,0.671-0.301,0.754c-0.232,0.306-0.398,0.65-0.491,1.022
	c-0.034,0.142-0.107,0.265-0.273,0.344c0,0-0.002,0-0.017,0c0,0.002-0.099,0.868-0.092,0.96c0.016,0.196,0.129,0.385,0.062,0.59
	c-0.06,0.175-0.305,0.136-0.366,0.309c0,0.003-0.001,0.005-0.002,0.009c-0.103,0.292,0.022,0.733,0.092,1.03
	c0.007,0.025-0.006,0.052-0.029,0.065c-0.022,0.013-0.053,0.009-0.071-0.011c0-0.001-0.002-0.002-0.002-0.003
	c-0.126-0.119-0.187-0.079-0.218-0.026c-0.022,0.039-0.02,0.087,0.006,0.124c0,0.001,0,0.001,0,0.001l0.358,0.501
	c0.357,0.503,0.843,0.894,1.412,1.134c0.001,0,0.001,0,0.001,0c0.311,0.136,0.607-0.073,0.916-0.039
	c0.343,0.041,0.683-0.019,1.025-0.021c0.116,0,0.353-0.035,0.501-0.099c0.122-0.052,0.132-0.139,0.145-0.24
	c0-0.008,0.001-0.017,0.002-0.025c0.006-0.087,0.021-0.099,0.403-0.401c0.272-0.216,0.608-0.332,0.886-0.548
	c0.468-0.367,1.065-0.001,1.572-0.156c0.116-0.036,1.705,0.562,1.809,0.613c0.003,0.001,0.005,0.002,0.007,0.004
	c0.468,0.194,1.723,0.205,2.021,0.29c0.122,0.033,0.307,0.075,0.483,0.071c0.012-0.006,0.023-0.012,0.034-0.017
	c0.249-0.118,0.406-0.508,0.752-0.333c0.602,0.303,2.297,0.039,1.883-1.364c-0.223-0.762-1.227-1.176-1.528-1.284
	c-0.908-0.329-1.504-1.11-2.304-1.602c-0.353-0.215-0.767-0.021-1.132-0.167c-0.821-0.327-0.821-0.327-0.864-0.563
	c-0.004-0.019,0.003-0.038,0.016-0.054c0.223-0.312,0.388-0.654,0.49-1.021c0.002-0.003,0.003-0.007,0.004-0.009
	c0.038-0.13,0.086-0.195-0.057-0.287c-0.188-0.119-0.548-0.004-0.584-0.312c-0.03-0.245,0.5-0.519,0.716-0.643
	c0.182-0.105,0.26-0.243,0.291-0.33c0.05-0.135-0.117-0.318-0.191-0.307c-0.251,0.028-0.943,0.44-1.043,0.451
	c-0.001,0-0.002,0-0.004,0.001c-0.03,0.003-0.063,0.014-0.09,0.03c-0.002,0,0,0-0.002,0l-1.581,0.915
	c-0.002,0.001-0.003,0.002-0.006,0.003c-0.281,0.206-0.436,0.543-0.41,0.891c0.025,0.347,0.226,0.658,0.534,0.822
	c0.13,0.069,0.318,0.105,0.253,0.237c0,0.001-0.001,0.001-0.001,0.001c-0.031,0.065-0.896,0.885-0.986,0.897
	c-0.232,0.027-0.311-0.087-0.329-0.121c-0.009-0.015-0.017-0.03-0.02-0.045c-0.137-0.39-0.447-0.709-0.889-0.841
	C287.483,213.84,287.423,213.757,287.421,213.663z M335.881,254.999c0-7.96-1.364-16.004-2.759-20.255
	c-0.437-1.333-1.447-2.4-2.754-2.908c-1.308-0.507-2.773-0.4-3.994,0.292c-3.079,1.741-2.982,1.963-4.058,1.908
	c-0.492-0.024-2.7,1.444-3.492-0.24c-0.149-0.317-0.925-1.745-2.002,0.225c-0.29,0.534-1.883,0.131-2.408-0.163
	c-1.55-0.866-3.46-2.888-3.93-3.397c-0.002,0.001-0.003,0.002-0.004,0.002c0,0-0.001,0.002-0.003,0.001
	c-0.529-0.613-2.06,0.225-0.934,1.901c3.771,5.621,4.434,5.67,5.5,6.23c0.002,0,0.002,0,0.002,0c0.505-0.38,0.432-0.497,1.087-0.59
	c0.405-0.058,0.756-0.312,0.937-0.679c0.001-0.003,0.004-0.007,0.006-0.01c0.206-0.424,0.598-0.729,1.06-0.824
	c0.461-0.095,0.94,0.03,1.299,0.337c0.003,0.003,0.007,0.007,0.01,0.01c0.653,0.562,1.494,0.042,2.188,0.373
	c1.761,0.827,1.089,2.509,0.74,4.5c-0.001,0.005-0.005,0.01-0.009,0.014c-0.005,0.003-0.011,0.004-0.017,0.003
	c-0.163-0.032-0.314,0.094-0.315,0.257c-0.007,0.632,0.397,1.222,0.273,1.866c-0.004,0.023-0.02,0.044-0.04,0.054
	c-0.212,0.104-0.4,0.243-0.563,0.416c-0.503,0.535-0.536,1.211-0.974,1.815c-0.41,0.573,0.031,1.851-0.953,1.857
	c-0.379,0.003-1.637,0.727-1.831,1.554c-0.23,0.981-0.768,1.857-1.539,2.506c-0.566,0.477-1.337,1.099-2.399,1.927
	c-0.506,0.394-2.548,2.599-4.309,3.012c-0.242,0.056-0.495-0.037-0.643-0.236c-0.009-0.012-0.017-0.024-0.025-0.038
	c-1.157-1.797-1.4-3.956-2.311-5.851c-1.075-2.246-3.986-2.839-4.798-5.327c-0.684-2.1-0.972-2.984-1.929-3.525
	c-0.67-0.379-1.229-0.905-1.64-1.552c-0.673-1.055-1.694-2.556-2.532-3.365c-0.382-0.367-0.633-0.843-0.721-1.365
	c-0.039-0.234-0.384-0.216-0.398,0.023c-0.048,0.835,0.106,1.097-0.126,1.274c-0.195,0.147-0.437,0.067-0.608-0.11
	c-0.598-0.618-1.577-1.739-1.823-2.366c-0.001,0.003-0.001,0.006-0.002,0.009c-0.063,0.244-0.017,0.504,0.128,0.709
	c1.295,1.845,7.609,10.963,7.77,11.825c1.052,5.738,5.494,7.112,7.762,9.228c0.426,0.397,0.706,0.912,0.816,1.466
	c0.104,0.529,0.355,0.986,0.752,1.351c0.419,0.387,0.836,0.334,3.205,0.039c0.394-0.052,0.648-0.332,0.921-0.583
	c0.231-0.217,2.154-0.896,2.406-1.055c0.519-0.336-0.128-0.138,1.065-0.703c0.467-0.225,1.015-1.63,0.922-0.035
	c-0.02,0.41,0.21,0.78,0.167,1.194c-0.247,2.419-0.449,2.82-0.588,3.288c-0.185,0.618-0.429,1.215-0.583,1.845
	c-0.726,2.966-1.874,6.129-3.87,8.469c-0.042,0.05-0.086,0.096-0.135,0.141c-1.104,1.022-3.116,2.91-4.755,6.121
	c-1.031,2.021-2.492,3.775-3.568,5.766c-0.363,0.674-0.453,0.844-0.131,1.751c0.229,0.648,0.912,3.644,1.019,7.482
	c0.113,4.187-0.561,4.874-1.901,5.847c-2.146,1.554-3.611,2.614-4.615,3.358c-1.179,0.869-1.883,2.241-1.9,3.705
	c-0.007,0.539-0.133,1.219-0.5,2.037c0,0.002,0.001,0.004,0.003,0.007c0.077,0.146-2.769,1.57-3.748,2.728
	c-0.001,0.001-0.002,0.001-0.002,0.002c-0.004,0.028-0.002,0.058,0.007,0.085c0.661,2.072-7.724,8.086-9.468,8.071
	c-1.261-0.009-4.354,0.483-5.828,1.114c-0.993,0.424-3.681-0.488-3.878-1.06c-0.029-0.087-0.038-0.243,0.032-0.301
	c0.656-0.545-1.561-3.75-2.089-4.114c-0.341-0.235-0.986-1.731-1.249-2.104c-0.81-1.146,0.582-2.757-0.321-3.897
	c-0.048-0.06-0.096-0.124-0.141-0.186l-2.612-3.65c-0.406-0.567-1.562-1.238-1.567-1.936c0-0.002,0-0.004,0-0.005
	c-0.007-0.761,1.354-4.432,1.461-4.587c0.126-0.179,0.242-0.373,0.34-0.567c0.056-0.109,0.159-0.188,0.359-0.294
	c0.664-0.339,1.614-1.176,0.527-2.951c-0.063-0.107-0.063,0.36-0.408-2.1c-0.225-1.618-2.351-5.281-2.712-5.665
	c0,0-2.464-1.176-3.595-3.495c0.059-0.133,0.145-0.246,0.258-0.338c1.043-0.834,0.855-1.88,1.162-4.131
	c0.016-0.111,0.035-0.227,0.061-0.337c0-0.007,0.001-0.012,0.002-0.017l0.031-0.149c0.002-0.006,0.003-0.011,0.004-0.016
	c0-0.002,0-0.003,0-0.004c0.094-0.443,0.212-1.036-0.396-1.953c-0.104-0.16-0.292-0.248-0.481-0.229
	c-0.011,0.001-0.021,0.002-0.029,0.003c-0.334,0.029-0.627-0.216-0.661-0.548c-0.001-0.004-0.001-0.009-0.001-0.012
	c-0.002-0.005-0.004-0.008-0.007-0.009c-0.489-0.199-1.028-0.227-1.532-0.079c-1.113,0.325-3.473,0.81-3.738-0.72
	c-0.355-2.054-1.76-2.502-2.449-2.456c-2.934,0.207-5.416,2.728-8.446,2.522c-0.135-0.006-0.306-0.072-0.434-0.119
	c-2.615-0.988-5.438-1.008-8.097-1.519c-0.903-0.174-2.202-0.612-2.857-1.257l-3.727-3.664c-0.243-0.237-0.458-0.5-0.644-0.785
	c-1.182-1.816-1.622-5.815-1.937-6.53c-0.046-0.104-0.098-0.209-0.151-0.31l-0.321-0.605c-0.003-0.008-0.008-0.013-0.012-0.02
	c0,0,0,0-0.001-0.001c-0.868-1.136-1.139-2.623-0.727-3.991l1.473-4.896c0.021-0.071,0.043-0.147,0.061-0.221
	c0.039-0.156,0.07-0.315,0.092-0.473c0.351-2.433-0.114-3.321-0.342-3.757c-0.425-0.813-0.425-0.813,1.679-3.743
	c3.828-5.337,4.484-5.604,5.248-5.913c0,0,0,0,0,0.003c0.003,0,0.005,0,0.007,0c1.665,0.189,4.817-1.841,4.758-2.943
	c-0.017-0.354-0.058-1.088,0.564-2.069c0.241-0.378,0.545-0.719,0.893-1.001l3.441-2.796c0.635-0.516,1.53-0.56,2.213-0.109
	c0,0,0,0,0,0c0.465-0.163,0.975-0.143,1.426,0.056c0.588,0.259,0.965,0.079,1.149-0.008c2.084-0.999,4.358-1.305,14.922-1.979
	c0.357-0.022,0.703,0.133,0.922,0.417c0.002,0.001,0.005,0.005,0.007,0.008c0.623,0.804,0.157,0.701,0.864,1.889
	c0.268,0.452,0.003,0.794-0.842,1.647c-0.319,0.323-0.268,0.838-0.163,0.855c0.29,0.015,0.977,0.195,1.544,0.492
	c0.748,0.39,1.933,0.776,2.915,1.06c0.894,0.258,1.688,0.779,2.285,1.492c0.388,0.467,5.616,3.589,5.404-0.657
	c-0.014-0.297,0.276-0.812,0.763-1.208c1.7-1.383,2.946,0.407,3.413,0.512c0.749,0.172,0.845,0.171,1.349,0.161
	c0.004,0,0.01,0,0.013,0c0.002,0,0.006,0,0.008,0c0.467,0.008,0.682,0.542,2.174,0.441c2.579-0.174,5.185,0.232,7.756-0.223
	c0.287-0.05,0.689-0.145,0.916-0.331c2.851-2.356-0.04-5.239,0.403-7.834c0-0.008-0.002-0.016-0.008-0.022
	c-0.005-0.005-0.012-0.009-0.02-0.007c-0.001,0-0.001,0-0.001,0c-0.881,0.069-1.716,0.418-2.384,0.993
	c-0.241,0.206-0.536,0.355-0.939,0.397c-0.713,0.072-1.269-0.392-1.888-0.626c-0.313-0.118-0.661,0.038-0.781,0.349
	c-0.001,0.002-0.001,0.004-0.002,0.007c-0.24,0.581-2.958,0.154-3.771-1.208c-0.247-0.414-0.619-0.733-1.066-0.914
	c0-0.001-0.002-0.001-0.002-0.002c0.01-0.009,0.02-0.018,0.03-0.027c0.801-0.755-0.425-1.337-0.56-1.924
	c-0.067-0.293,0.086-0.59,0.364-0.703c0.005-0.002,0.011-0.004,0.017-0.007c0.667-0.252,0.968-0.614,0.835-0.516
	c-0.283,0.208-0.616,0.329-0.969,0.349c-0.001,0-0.001,0-0.002,0c-0.187,0.011-0.37-0.031-0.531-0.12
	c-0.395-0.22-0.841-0.334-1.292-0.334c-0.541,0-1.091,0.155-1.201,0.692c-0.021,0.1-0.078,0.188-0.161,0.246
	c0,0-0.001,0-0.001,0.001c-0.07,0.049-0.159,0.058-0.237,0.023c-0.137-0.064-0.272-0.048-0.378,0.024
	c-0.112,0.076-0.174,0.199-0.159,0.368c0.041,0.467,1.302,0.945,0.28,1.416l-0.007,0.004c0,0-0.439,0.256-0.478,0.276
	c-0.419,0.208-0.968-0.255-1.332-0.277c-0.119-0.006-0.233,0.044-0.354,0.041c-0.003,0-0.007,0-0.01,0
	c-0.071-0.001-0.115-0.029-0.132-0.042c-0.001-0.003-0.003-0.003-0.005-0.004c-0.036-0.031-0.431-0.381-0.494-0.491
	c-0.153-0.262-0.168-0.288-0.251-0.375c-0.064-0.068-0.181-0.155-0.272-0.22c-0.198-0.141-0.324-0.363-0.342-0.607c0,0,0,0,0-0.001
	c-0.014-0.189-0.036-0.456-0.071-0.747c-0.077-0.654-0.407-1.25-0.919-1.663c-0.133-0.106-0.299-0.162-0.467-0.154
	c-0.107,0.004-0.217-0.025-0.309-0.087c-0.432-0.287-0.72-0.349-0.72-0.349c-0.001-0.001-0.002-0.002-0.003-0.003l-3.377-2.461
	c-0.193-0.141-0.428-0.209-0.666-0.194c-0.199,0.012-0.307-0.174-0.414-0.339c-0.219-0.331-0.627-0.48-1.008-0.367
	c-0.016,0.004-0.029,0.01-0.045,0.016c-0.238,0.091-0.351,0.378-0.223,0.611c0.072,0.127,0.149,0.253,0.231,0.372l1.964,2.858
	c0.326,0.473,0.867,0.754,1.439,0.748c0.235-0.001,0.433,0.175,0.458,0.409c0.012,0.112,0.076,0.217,0.181,0.278
	c0.937,0.538,2.148,0.617,2.798,1.635c0.007,0.011,0.012,0.022,0.014,0.033c0,0.003,0.001,0.007,0.001,0.01s0,0.002,0,0.004
	c0.002,0.076-0.047,0.32-0.087,0.395c-0.068,0.127-0.318,0.183-0.392,0.117c-0.053-0.047-0.049-0.16-0.043-0.279
	c0.002-0.038-0.01-0.083-0.027-0.133c-0.098-0.272-0.301-0.327-0.564-0.44c-0.361-0.153-0.778,0.007-0.942,0.363
	c-0.001,0.003-0.003,0.007-0.005,0.01c-0.005,0.011-0.01,0.021-0.013,0.031c-0.156,0.404,0.104,0.527,0.243,0.595
	c0.219,0.104,0.552,0.263,0.462,0.736c-0.038,0.2-0.258,0.128-0.375,0.215c0,0,0.075-0.069-0.317,0.716
	c-0.137,0.267-0.009,0.33-0.354,0.507c-0.291,0.143-0.429-0.045-0.464-0.106c-0.127-0.214,0.048-0.407,0.042-0.614
	c-0.004-0.093-0.006-0.175,0.265-0.288c0.386-0.163-0.022-0.796-0.254-1.155c-0.002-0.003-0.004-0.008-0.008-0.011
	c-0.473-0.819-0.16-0.156-0.707-0.666c-0.336-0.315-1.219-0.843-1.393-1.059c-1.158-1.436-3.059-2.117-4.055-3.719
	c-0.203-0.325-0.496-0.583-0.844-0.742c-0.227-0.104-0.496-0.179-0.797-0.164c-0.287,0.013-1.656,0.794-2.754,1.421
	c-1.037,0.592-1.785-0.807-2.793-0.406c-1.09,0.433-0.445,1.858-1.369,2.386c-1.051,0.602-2.307,0.799-3.234,1.647
	c-0.037,0.034-0.064,0.085-0.09,0.141c-0.283,0.653-0.779,0.936-0.813,1.1c-0.029,0.134-0.041,0.192,0.018,0.38
	c0.123,0.394-0.001,0.822-0.313,1.09c-0.001,0.001-0.001,0.001-0.001,0.002c-0.203,0.179-0.033,0.743-0.219,0.844
	c-0.344,0.177-0.715-0.017-1.063,0.083c-0.525,0.148-0.552,0.829-1.067,0.988c-0.673,0.202-1.324-0.222-1.995-0.074
	c-1.514,0.33-1.514,0.33-1.571,0.468c-0.053,0.124-0.175,0.332-0.389,0.33c-0.787-0.017-0.496-1.001-0.868-1.427
	c-0.401-0.461-0.513-0.411-0.695-0.334c-0.245,0.106-0.655,0.285-0.782,0.21c-0.169-0.103-0.301-0.259-0.498-0.317
	c-0.134-0.039-0.247-0.131-0.311-0.255c-0.112-0.223,0.168-1.12,0.232-1.377c0.039-0.155,0.028-0.318-0.029-0.468
	c-0.068-0.176-0.234-0.293-0.422-0.298c-0.036,0-0.071-0.017-0.095-0.042c-0.219-0.243,0.683-1.156,0.933-1.623
	c0.039-0.072,0.081-0.176,0.11-0.253c0.772-1.975,0.771-2.645,0.612-3.305c-0.07-0.291,0.141-0.574,0.44-0.591
	c0.166-0.008,0.338-0.016,0.48-0.022c0,0,0.001,0,0,0c0.321-0.374,0.854-0.479,1.292-0.256c0.596,0.303,1.785,0.734,3.815,0.829
	c0.493,0.024,0.985,0.126,1.445,0.302c0.431,0.164,0.796-0.212,0.956-0.417c0.379-0.484,0.321-1.083,0.397-1.649
	c0.04-0.298,0.208-0.564,0.458-0.731c0,0,0,0,0.001,0c0.066-0.045,0.101-0.125,0.086-0.205c-0.02-0.106-0.106-0.957-0.21-0.966
	c-0.006-0.001-0.01-0.001-0.014-0.001c-0.84-0.091-0.573-1.171-1.125-1.52c-0.467-0.297-0.447-0.499-1.609-0.625
	c-0.167-0.018,0.229-0.825,0.904-1.04c0.038-0.013,0.08-0.01,0.117,0.009c0.416,0.209,0.879,0.307,1.343,0.285
	c0.175-0.009,0.339-0.097,0.44-0.24c0.104-0.142,0.136-0.323,0.088-0.493c0-0.003-0.001-0.006-0.002-0.009
	c-0.049-0.176,0.104-0.447,0.303-0.316c0.386,0.253,0.579,0.417,1.252,0.32c0.166-0.024,0.301-0.147,0.339-0.312
	c0.019-0.078,0.068-0.144,0.139-0.184c0.755-0.428,1.075-0.618,1.226-0.792c0.359-0.414,0.779-0.758,1.259-1.024
	c0.684-0.381,1.017-0.629,1.669-1.221c0.281-0.253,0.617-0.43,0.985-0.517c0.113-0.027,0.187-0.135,0.169-0.249
	c-0.003-0.022,0.002-0.045,0.016-0.062c0.123-0.163,0.311-0.266,0.514-0.286c0.477-0.044,0.761-0.044,0.959-0.044
	c0.004-0.001,0.005-0.004,0.006-0.006c0.138-0.159,0.338-0.247,0.548-0.241c0.5,0.014,1.155,0.244,1.05-1.123
	c-0.157-1.23,0.252-2.47,1.111-3.366c0-0.001,0.002-0.002,0.003-0.004c0.388,0.164,0.302,0.559,0.366,0.976
	c0.041,0.25-0.035,0.504-0.205,0.691c-0.004,0.003-0.006,0.005-0.008,0.009c-1.639,1.818,0.461,1.758,0.518,2.225
	c0.001,0.002,0.001,0.005,0.002,0.008c0.008,0.079,0.051,0.148,0.117,0.191c0.068,0.042,0.148,0.05,0.224,0.023
	c0.071-0.025,1.689-0.701,1.754-0.66c0.307,0.192,0.073,0.292,0.319,0.516c0.001,0.002,0.003,0.003,0.006,0.005
	c0.367,0.337,0.905,0.406,1.346,0.173c0.93-0.495,2-0.658,3.036-0.468c0.509,0.094,1.77-1.127,1.537-1.809
	c0-0.001,0-0.001-0.002-0.001c-0.142-0.415-0.166-0.862-0.07-1.291c0.061-0.269-0.05-0.415,0.257-0.618
	c0.154-0.101,0.35-0.118,0.518-0.042c0.218,0.098,0.469,0.104,0.694,0.008c0.298-0.127,0.501-0.41,0.524-0.734
	c0-0.002,0.001-0.003,0.001-0.005c0.005-0.065-0.028-0.128-0.082-0.162c-0.279-0.175-0.437-0.499-0.395-0.832
	c0.047-0.369,0.328-0.665,0.695-0.731c1.07-0.195,1.264,0.407,2.283-0.5c0.062-0.055,0.088-0.14,0.067-0.219
	c-0.021-0.08-0.086-0.141-0.165-0.158c-0.001,0-0.001,0-0.002,0c-0.843-0.183-1.722-0.126-2.535,0.158l-0.982,0.344
	c-0.002,0.001-0.002,0.001-0.005,0.001c-0.001,0.001-0.003,0.002-0.004,0.002c0,0.001,0,0.001-0.002,0.001
	c-0.166,0.107-0.363,0.157-0.561,0.142c-0.684-0.055-1.116-0.704-1.384-1.422c-0.311-0.833-0.206-1.768,0.281-2.511
	c0.242-0.368,0.363-0.841,0.634-1.186c0.111-0.142,0.152-0.326,0.112-0.501c-0.112-0.494-0.968-0.714-1.446-0.608
	c-0.952,0.214-0.313,1.355-0.696,1.952c-0.22,0.345-1.14,0.589-1.22,1.057c-0.201,1.202-0.305,1.833-0.225,2.25
	c0.172,0.895,0.085,1.811-0.26,2.654c-0.002,0.006-0.006,0.011-0.008,0.017c-0.273,0.718,0.288,1.468-0.086,2.182
	c-0.437,0.83-1.449,0.173-1.686,1.173c-0.096,0.422-0.922-0.199-1.205-0.48c-0.028-0.825-0.347-1.204-0.578-1.849
	c-0.187-0.522-0.611-0.924-1.143-1.083c-1.414-0.42-1.7,0.961-2.949,0.576c-1.008-0.31-1.713-1.216-1.766-2.269
	s0.558-2.025,1.527-2.435c0,0,0,0,0.002-0.001c3.304-1.389,3.918-2.556,4.14-3.339c0.049-0.176,0.187-0.315,0.363-0.365
	c0.001-0.001,0.003-0.001,0.005-0.002c0.001,0,0.002,0,0.002-0.001c0.035-0.178,0.127-0.34,0.26-0.464
	c0.339-0.315,0.569-0.735,0.873-1.082c0.333-0.381,0.677-0.97,0.677-0.97l0,0c0,0,1.713-1.675,3.519-2.248
	c0.837-0.263,1.45-0.252,1.649-0.211c0.209,0.042,0.518,0.101,1.005,0.195l0,0c-0.026,0.164,0.016,0.331,0.115,0.462
	c0.229,0.305,0.98,0.23,1.884,0.648c1.048,0.485,2.305,0.34,3.437,0.576c0.461,0.097,0.771,0.527,0.719,0.995
	c-0.056,0.467-0.457,0.816-0.928,0.803c-0.326-0.009-0.621,0.193-0.732,0.5c-0.11,0.306-0.013,0.649,0.242,0.852
	c0.402,0.32,0.863,0.573,1.349,0.744c0.57,0.201,1.494,0.347,1.092-0.099c0,0-0.001,0,0,0c-0.145-0.16-0.349-0.25-0.563-0.252
	c-0.782-0.004-0.536-0.722-0.114-0.53c0.467,0.211,1.768,0.351,0.865-0.519c-0.111-0.108-0.123-0.282-0.027-0.403
	c0.15-0.189,0.271-0.401,0.359-0.626c0.188-0.478,0.152-0.325,0.765-0.139c0.106,0.032,0.216,0.012,0.3-0.047
	c0.173-0.12,0.405-0.214,0.235-0.342c-0.143-0.109,0.15-0.359,0.255-0.324c0.179,0.06,0.376,0.003,0.492-0.143
	c0.092-0.115,0.12-0.266,0.08-0.403c-0.104-0.351,0.186-1.303,0.688-1.488c0.122-0.045,0.254-0.049,0.378-0.011
	c0.002-0.001,0.002-0.001,0.002-0.001c0.104-0.097,0.227-0.172,0.359-0.221c0.226-0.083,0.607-0.247,0.878-0.481
	c0.277-0.24,0.652-0.332,1.009-0.245c0.004,0.001,0.007-0.001,0.011-0.003c0.11-0.122,0.106-0.31-0.011-0.428
	c-0.21-0.211-0.93-0.579-0.824-0.858c0.033-0.09,0.48-0.199,0.541-0.58c0.041-0.261-0.104-0.517-0.351-0.613
	c-7.444-2.923-15.456-4.713-23.825-5.172c-1.541,0.953-3.084,2.018-4.472,3.167c-5.067,4.198-13.071,5.936-12.89,5.47
	c-0.765,0.009-0.967-0.198-0.967-0.198c-0.25,0.064-0.471,0.206-0.679,0.06c-0.002-0.001-0.004-0.003-0.005-0.003
	c0.009-0.1-0.038-0.196-0.12-0.251c-0.268-0.181-0.791,0.243-2.06,0.887c-0.005,0.002-0.009,0.004-0.014,0.006
	c-0.023,0.013-0.048,0.024-0.07,0.037c-0.535,0.284-1.135,0.351-1.541,0.357c-0.292,0.004-0.577,0.062-0.849,0.169
	c-0.042,0.016-0.088,0.001-0.112-0.038c-0.093-0.15,0.371-0.318,0.536-0.382c0.152-0.059,0.081-0.229-0.554,0.133
	c-0.137,0.078-0.3,0.1-0.453,0.06c-0.636-0.162-1.398,0.348-1.902,0.767c-0.078,0.065-0.18,0.103-0.301,0.052
	c-0.176-0.074-0.331-0.048-0.279,0.224c0.06,0.292-1.616,1.034-1.646,0.907c-0.032-0.091-0.128-0.144-0.223-0.124
	c-0.219,0.046-0.484,0.224-0.631,0.5c-0.268,0.507-0.996,0.593-1.352,0.888c-0.367,0.306-0.913,0.609-0.913,0.609
	c-0.2,0.233-0.336,0.362-0.549,0.371c-0.209,0.009-0.331-0.357-0.238-0.497c0.056-0.086,0.458-0.48,0.361-0.501
	c-0.04-0.009-0.074-0.034-0.093-0.07c-0.068-0.131,0.246-0.27,0.165-0.43c-0.054-0.107-0.66-0.143-0.708-0.197
	c-0.036-0.04-0.044-0.098-0.02-0.146c0.377-0.766,0.426-0.814,0.938-1.321c-0.002-0.002-0.004-0.005-0.005-0.008
	c-0.054-0.08-0.054-0.183,0.001-0.263c0.286-0.418,1.234-1.665,2.34-1.816c0.293-0.042,0.104-0.103,0.104-0.103
	c-0.277-0.108-0.629-0.187-0.428-0.405c0.393-0.427,0.995-0.996,1.667-1.331c0.322-0.161,0.624-0.356,0.901-0.585
	c0.274-0.227,1.199-0.628,2.199-0.673c0.001,0,0.002,0,0.004,0c0.833-0.054,3.04-1.556,3.057-1.576c0,0-0.001-0.001-0.002-0.001
	c-0.068-0.065,0.035-0.289,0.014-0.404c-0.009-0.048,0.015-0.096,0.058-0.118c0.217-0.114,0.468-0.157,0.692-0.255
	c0.03-0.013,0.051-0.041,0.057-0.073c0.011-0.084-0.085-0.14-0.165-0.109c-0.457,0.17-0.648,0.24-0.754,0.271
	c-0.059,0.017-0.12-0.009-0.149-0.062c-0.029-0.052-0.016-0.119,0.029-0.158c0.524-0.453,1.229-0.459,1.852-0.674
	c0.271-0.094,0.272-0.669-0.293-0.576c-2.784,0.459-5.313,1.287-7.954,2.161c0,0.001,0.001,0.003,0.001,0.005
	c0.019,0.078-0.532,0.341-0.6,0.409c-0.035,0.034-0.048,0.084-0.035,0.131c0,0.003,0.001,0.006,0.002,0.009
	c0.034,0.004,0.044,0.045,0.019,0.064c-0.105,0.079-0.304-0.002-0.363,0.111c-0.071,0.135,0.181,0.082,0.228,0.176
	c0.036,0.07,0.023,0.155-0.031,0.212c0,0-0.001,0-0.001,0.001c-0.083,0.084-0.495,0.265-0.558,0.189
	c-0.058-0.071-0.069-0.133-0.15-0.081c-0.295,0.19-0.481,0.304-0.651,0.334c-0.595,0.103-1.352,0.421-1.352,0.421
	c0.09-0.076,0.372-0.343,0.419-0.444c0.163-0.328,0.339-0.431,0.537-0.484c0.142-0.037,0.165-0.237-0.474,0.005
	c-0.575,0.217-1.106,0.551-1.553,0.973c-0.376,0.353-0.819,0.738-1.138,0.903c0.06-0.103,0.016-0.129-0.028-0.106
	c-0.037,0.019-0.34,0.293-0.461,0.26c-0.381-0.102,0.116-0.319,0.116-0.698c0.04-0.063,0.091-0.113,0.146-0.161
	c-0.001,0.001-0.001,0.001-0.002,0.002c-0.435,0.184-0.826,0.463-1.145,0.811c-0.257,0.281-0.468,0.615-0.745,0.341
	c-0.131-0.128-0.331-0.166-0.501-0.086c-1.061,0.496-2.108,1.017-3.141,1.558c-0.109,0.058-0.212,0.126-0.307,0.206
	c-0.071,0.06-0.119,0.145-0.132,0.237c-0.016,0.111-0.204,0.353-0.273,0.469c-0.031,0.053-0.03,0.119,0.002,0.17
	c0.095,0.146,0.411,0.039,0.578-0.015c0.236-0.078,0.496,0.019,0.623,0.232c0.125,0.209,0.093,0.475-0.077,0.647
	c-0.141,0.145-0.277,0.304-0.398,0.464c-0.254,0.339-0.492,0.694-0.856,0.923c-0.222,0.141-0.435,0.3-0.63,0.476
	c-1.991,1.786-2.057,5.036-3.522,5.69c-0.003,0.002-0.007,0.003-0.01,0.004c-1.123,0.499-1.516,0.068-2.862,0.571
	c-0.262,0.098-0.507,0.027-0.754-0.04c-0.209-0.056-0.379-0.208-0.459-0.409c0,0,0,0,0-0.001c-0.295-0.75-1.143-1.119-1.893-0.824
	c-0.126,0.049-0.259,0.071-0.405,0.033c-0.003-0.001-0.005-0.003-0.007-0.004c-0.001-0.001-0.002-0.002-0.004-0.003
	c-0.246,0.071-1.824,0.574-1.711,0.796c0.001,0.002,2.777-0.847,2.153,0.653c-0.001,0-0.003,0.001-0.004,0.001
	c-0.104,0.03-0.189,0.103-0.235,0.202c-0.067,0.142-0.149,0.223-0.38,0.275c-0.265,0.061-0.545-0.014-0.745-0.198
	c-0.001-0.001-0.004-0.002-0.005-0.002c-0.142,0.024-0.204,0.375-0.147,0.47c0.074,0.124,0.44,0.123,0.061,0.357
	c-0.224,0.137-0.525,0.209-0.625,0.454c-0.119,0.288-0.265,0.563-0.438,0.821c-0.181,0.271,0.212,0.357-0.094,0.605
	c-0.366,0.297-1.627,0.01-2.067,0.093c-0.001,0-0.759,0.073-1.215,0.234c-0.456,0.16-1.279,0.365-1.732,0.913
	c-0.781,0.944-0.713,1.142-1.626,0.888c-0.052-0.015-0.107,0-0.145,0.04c-9.301,9.869-16.018,22.197-19.077,35.906
	c-0.002,0.011-0.005,0.023-0.008,0.035c-0.202,0.874-0.432,1.942-0.769,3.946c-0.007,0.047-0.007,0.094,0.003,0.141
	c0.045,0.224,0.09,0.282,0.375,0.282c0.676,0,1.254,0.478,1.379,1.143c0.032,0.191,0.146,0.324,0.301,0.387
	c0.151,0.062,0.321,0.05,0.481-0.063c0.103-0.073,0.68,0.43,0.717,1.044c0.021,0.331,0.147,0.711,0.212,1.038
	c0.078,0.396-0.025,0.804-0.283,1.114c-0.04,0.048-0.053,0.111-0.039,0.173c0.325,1.264,1.788,6.646,2.091,6.925
	c0.175-0.033,0.318,0.024,0.414,0.134c2.958,3.334,6.297,8.778,6.201,10.483c-0.667,1.25-0.595,1.186-0.042,1.863
	c1.031,1.266,1.012,1.326,0.622,2.628l0.001-0.001c0.228-0.37,0.632-0.594,1.066-0.594c0.435,0.001,0.837,0.226,1.065,0.596
	c0.169,0.274,0.34,0.548,0.571,0.754c0.609,0.547,0.924,1.351,0.849,2.165c0,0.003,0.938,0.01,2.236,0.986
	c1.645,1.237,7.454,7.89,7.682,9.712c0.102,0.812-0.23,1.607-0.647,2.313c-0.479,0.811-2.03,2.496-2.293,3.405
	c-0.13,0.451-0.853,0.655-0.848,0.924c0.008,0.367,0.121,1.137,0.651,2.652c0.158,0.447,0.524,3.771,0.343,5.11
	c-0.107,0.785-0.105,0.924,0.088,1.788c0.063,0.27-0.613,1.039-1.079,0.707c-0.585-0.418-1.071-0.355-1.132-0.233
	c0,0.001,0,0.001-0.001,0.002c-0.806,1.322-3.708,1.557-3.062,2.965c0.191,0.416,0.384,0.832,0.55,1.254
	c0.196,0.498,0.304,1.033,0.321,1.566c0.006,0.23,0.807,1.923,1.446,2.592c13.998,14.639,33.716,23.759,55.569,23.759
	C301.46,331.88,335.881,297.459,335.881,254.999z M247.636,206.003c0.319-0.139,0.617-0.33,0.955-0.421
	c0.003-0.001,0.007-0.002,0.01-0.003c0.466-0.127,0.874-0.001,1.014-0.178c0.137-0.175,0.372-0.492,0.482-0.747
	c0.053-0.126-0.081-0.305,0.086-0.396c0.188-0.102,0.023-0.3,0.072-0.444c0.129-0.384,0.215-0.394,0.367-0.416
	c0.148-0.021,0.286-0.04,0.338-0.119c0.241-0.357-0.613-1.382-1.146-1.245c-0.554,0.142-1,0.951-1.186,0.939
	c-0.235-0.012-0.342-0.02-0.5,0.104c-0.122,0.093-0.137,0.249-0.227,0.36c-0.105,0.137-0.246,0.244-0.354,0.379
	c-0.09,0.111-0.124,0.208,0.003,0.324c0.094,0.082,0.146,0.127-0.13,0.484c-0.228,0.293-0.604,0.45-0.763,0.811
	c-0.056,0.131-0.048,0.391-0.03,0.495C246.701,206.306,247.284,206.155,247.636,206.003z"/>
</svg>
